<?xml version="1.0" standalone="no"?>
<!DOCTYPE svg PUBLIC "-//W3C//DTD SVG 20010904//EN"
 "http://www.w3.org/TR/2001/REC-SVG-20010904/DTD/svg10.dtd">
<svg version="1.0" xmlns="http://www.w3.org/2000/svg"
 width="1280.000000pt" height="1226.000000pt" viewBox="0 0 1280.000000 1226.000000"
 preserveAspectRatio="xMidYMid meet">
<g transform="translate(0.000000,1226.000000) scale(0.100000,-0.100000)"
fill="#000000" stroke="none">
<path d="M9507 12240 c-264 -49 -433 -135 -603 -304 -221 -222 -324 -485 -311
-796 11 -274 116 -517 306 -708 229 -231 538 -343 860 -312 130 12 230 40 348
95 124 58 193 105 290 198 189 181 300 414 322 676 37 431 -182 834 -562 1036
-109 58 -206 89 -353 114 -143 25 -168 25 -297 1z"/>
<path d="M5650 10380 c-36 -5 -91 -18 -122 -30 -134 -50 -116 -31 -1130 -1196
-524 -602 -972 -1122 -995 -1155 -58 -82 -85 -171 -86 -284 -1 -157 45 -269
157 -381 116 -116 234 -160 405 -152 107 5 186 31 273 90 35 23 301 323 907
1023 472 545 865 996 873 1003 20 16 969 13 975 -3 2 -8 -3458 -4032 -3656
-4251 l-37 -41 -1285 5 c-1455 5 -1377 9 -1544 -72 -147 -72 -268 -201 -325
-345 -26 -68 -60 -211 -60 -256 0 -70 49 -246 92 -329 63 -121 173 -228 298
-289 170 -83 48 -78 1855 -75 1471 3 1608 5 1694 21 186 35 367 111 470 198
21 19 362 394 756 834 395 440 722 801 729 803 11 2 1652 -1584 1669 -1613 4
-8 -12 -102 -38 -217 -26 -112 -122 -540 -215 -953 -93 -412 -226 -1002 -295
-1310 -70 -308 -130 -593 -134 -633 -30 -304 126 -578 401 -701 68 -31 229
-71 283 -71 45 0 189 34 256 60 82 33 181 103 250 178 75 82 139 210 168 337
19 86 181 807 491 2190 270 1206 301 1341 337 1490 34 137 37 163 37 300 1
175 -17 255 -87 390 -39 77 -69 108 -794 830 -433 431 -753 757 -753 767 0 18
1584 1858 1598 1858 5 0 246 -239 537 -531 334 -336 552 -546 589 -571 201
-131 457 -116 675 39 57 41 1353 1334 1722 1718 125 130 151 174 188 308 26
95 26 124 1 223 -30 120 -73 199 -154 280 -179 179 -444 214 -665 88 -28 -16
-317 -297 -753 -732 l-708 -707 -852 851 c-469 468 -876 867 -904 887 -62 44
-158 90 -239 114 -56 16 -151 18 -1425 19 -751 1 -1394 -2 -1430 -6z"/>
</g>
</svg>
